# xmcd
#
# Track frame offsets:
#	150
#	18055
#	31277
#	49895
#	66800
#	82582
#	99937
#	117572
#	133270
#	158917
#	174290
#	191390
#	214857
#	231447
#	249540
#
# Disc length: 3488
#
# Revision: 1
# Processed by: cddbd v1.5.1PL0 Copyright (c) Steve Scherf et al.
# Submitted via: audiograbber 1.82.02
# Normalized: r0:DSETVAR1
#
DISCID=c00d9e0f
DTITLE=Various Artist - SC-8275
DYEAR=1900
DGENRE=Instrumental
TTITLE0=Crowell, Rodney - Even Cowgirls Get The Blues
TTITLE1=Strait, George - Baby Your Baby
TTITLE2=Nelson, Willie - Graceland
TTITLE3=Bellamy Brothers, The - Bubba
TTITLE4=Stevens, Ray - Gitarzan
TTITLE5=Foster, Radney - Closing Time
TTITLE6=Bogguss, Suzy - Cross My Broken Heart
TTITLE7=Kershaw, Sammy - If You Ever Come This Way Again
TTITLE8=Yoakam, Dwight - Long White Cadillac
TTITLE9=Ledoux, Chris - Honky Tonk World
TTITLE10=Seals, Dan - Love Thing
TTITLE11=Morgan, Lorrie - War Paint
TTITLE12=Rogers, Kenny - Missing You
TTITLE13=Alabama - Pictures And Memories
TTITLE14=Gregg, Ricky Lynn - Three Nickels And A Dime
EXTD=
EXTT0=
EXTT1=
EXTT2=
EXTT3=
EXTT4=
EXTT5=
EXTT6=
EXTT7=
EXTT8=
EXTT9=
EXTT10=
EXTT11=
EXTT12=
EXTT13=
EXTT14=
PLAYORDER=
